<svg width="877" height="360" viewBox="0 0 877 360" fill="none" xmlns="http://www.w3.org/2000/svg">
<path d="M872.314 356.223C855.585 368.625 697.738 339.95 675.792 312.973C675.668 312.869 675.151 312.248 675.088 312.144C674.736 311.71 674.861 311.772 674.592 311.337C661.113 292.02 652.5 272.993 648.753 254.298L631.465 296.14C628.753 302.724 620.72 308.459 613.619 308.894L447.201 319.184C421.983 320.737 397.387 310.964 380.12 292.496L287.698 193.656C282.687 188.294 280.886 178.356 283.702 171.565L301.01 129.929C285.13 140.509 265.586 147.88 242.398 151.979C240.389 152.331 238.381 152.621 236.331 152.869C230.389 153.573 224.261 153.739 217.946 153.408C205.255 152.766 191.839 150.033 177.719 145.25C68.9196 108.459 0.016974 63.739 0.016974 43.8632C-0.542031 35.6645 12.7085 29.5775 39.4372 27.8384L542.024 0.0537558C556.89 -0.753696 577.2 7.63138 587.159 18.7287L866.972 330.654C878.152 343.511 879.477 352.786 872.314 356.223Z" fill="#FFFFFF"/>
</svg>
