<?xml version="1.0" encoding="UTF-8" standalone="no" ?>
<!DOCTYPE svg PUBLIC "-//W3C//DTD SVG 1.1//EN" "http://www.w3.org/Graphics/SVG/1.1/DTD/svg11.dtd">
<svg xmlns="http://www.w3.org/2000/svg" xmlns:xlink="http://www.w3.org/1999/xlink" version="1.1" width="1100" height="250" viewBox="-0.91 37.73 1100 250" xml:space="preserve">
<desc>Created with Fabric.js 5.2.4</desc>
<defs>
</defs>
<rect x="0" y="0" width="100%" height="100%" fill="transparent"></rect>
<g transform="matrix(1 0 0 1 550 125)" id="3c734097-7726-4e6a-974d-78ec4f916296"  >
<rect style="stroke: none; stroke-width: 1; stroke-dasharray: none; stroke-linecap: butt; stroke-dashoffset: 0; stroke-linejoin: miter; stroke-miterlimit: 4; fill: rgb(255,255,255); fill-rule: nonzero; opacity: 1; visibility: hidden;" vector-effect="non-scaling-stroke"  x="-550" y="-125" rx="0" ry="0" width="1100" height="250" />
</g>
<g transform="matrix(Infinity NaN NaN Infinity 0 0)" id="027f36fc-18b1-4958-914c-b6e2bac0ecb8"  >
</g>
<g transform="matrix(2.34 0 0 2.34 550 205.38)"  >
<g style="" vector-effect="non-scaling-stroke"   >
		<g transform="matrix(0.5 0 0 0.5 -189.59 43.52)" style=""  >
		<text xml:space="preserve" font-family="ArialMT, Arial" font-size="45.23" font-style="normal" font-weight="normal" style="stroke: none; stroke-width: 1; stroke-dasharray: none; stroke-linecap: butt; stroke-dashoffset: 0; stroke-linejoin: miter; stroke-miterlimit: 4; fill: rgb(255,255,255); fill-rule: nonzero; opacity: 1; visibility: hidden; white-space: pre;" ><tspan x="-13.81" y="14.21" >T</tspan></text>
</g>
		<g transform="matrix(0.5 0 0 0.5 -172.64 43.52)" style=""  >
		<text xml:space="preserve" font-family="ArialMT, Arial" font-size="45.23" font-style="normal" font-weight="normal" style="stroke: none; stroke-width: 1; stroke-dasharray: none; stroke-linecap: butt; stroke-dashoffset: 0; stroke-linejoin: miter; stroke-miterlimit: 4; fill: rgb(255,255,255); fill-rule: nonzero; opacity: 1; visibility: hidden; white-space: pre;" ><tspan x="-16.33" y="14.21" >H</tspan></text>
</g>
		<g transform="matrix(0.5 0 0 0.5 -156.74 43.52)" style=""  >
		<text xml:space="preserve" font-family="ArialMT, Arial" font-size="45.23" font-style="normal" font-weight="normal" style="stroke: none; stroke-width: 1; stroke-dasharray: none; stroke-linecap: butt; stroke-dashoffset: 0; stroke-linejoin: miter; stroke-miterlimit: 4; fill: rgb(255,255,255); fill-rule: nonzero; opacity: 1; visibility: hidden; white-space: pre;" ><tspan x="-15.08" y="14.21" >E</tspan></text>
</g>
		<g transform="matrix(0.5 0 0 0.5 -120.13 43.52)" style=""  >
		<text xml:space="preserve" font-family="ArialMT, Arial" font-size="45.23" font-style="normal" font-weight="normal" style="stroke: none; stroke-width: 1; stroke-dasharray: none; stroke-linecap: butt; stroke-dashoffset: 0; stroke-linejoin: miter; stroke-miterlimit: 4; fill: rgb(255,255,255); fill-rule: nonzero; opacity: 1; visibility: hidden; white-space: pre;" ><tspan x="-15.08" y="14.21" >S</tspan></text>
</g>
		<g transform="matrix(0.5 0 0 0.5 -101.68 43.52)" style=""  >
		<text xml:space="preserve" font-family="ArialMT, Arial" font-size="45.23" font-style="normal" font-weight="normal" style="stroke: none; stroke-width: 1; stroke-dasharray: none; stroke-linecap: butt; stroke-dashoffset: 0; stroke-linejoin: miter; stroke-miterlimit: 4; fill: rgb(255,255,255); fill-rule: nonzero; opacity: 1; visibility: hidden; white-space: pre;" ><tspan x="-13.81" y="14.21" >T</tspan></text>
</g>
		<g transform="matrix(0.5 0 0 0.5 -85.12 43.52)" style=""  >
		<text xml:space="preserve" font-family="ArialMT, Arial" font-size="45.23" font-style="normal" font-weight="normal" style="stroke: none; stroke-width: 1; stroke-dasharray: none; stroke-linecap: butt; stroke-dashoffset: 0; stroke-linejoin: miter; stroke-miterlimit: 4; fill: rgb(255,255,255); fill-rule: nonzero; opacity: 1; visibility: hidden; white-space: pre;" ><tspan x="-15.08" y="14.21" >A</tspan></text>
</g>
		<g transform="matrix(0.5 0 0 0.5 -65.42 43.52)" style=""  >
		<text xml:space="preserve" font-family="ArialMT, Arial" font-size="45.23" font-style="normal" font-weight="normal" style="stroke: none; stroke-width: 1; stroke-dasharray: none; stroke-linecap: butt; stroke-dashoffset: 0; stroke-linejoin: miter; stroke-miterlimit: 4; fill: rgb(255,255,255); fill-rule: nonzero; opacity: 1; visibility: hidden; white-space: pre;" ><tspan x="-13.81" y="14.21" >T</tspan></text>
</g>
		<g transform="matrix(0.5 0 0 0.5 -47.83 43.52)" style=""  >
		<text xml:space="preserve" font-family="ArialMT, Arial" font-size="45.23" font-style="normal" font-weight="normal" style="stroke: none; stroke-width: 1; stroke-dasharray: none; stroke-linecap: butt; stroke-dashoffset: 0; stroke-linejoin: miter; stroke-miterlimit: 4; fill: rgb(255,255,255); fill-rule: nonzero; opacity: 1; visibility: hidden; white-space: pre;" ><tspan x="-16.33" y="14.21" >U</tspan></text>
</g>
		<g transform="matrix(0.5 0 0 0.5 -28.75 43.52)" style=""  >
		<text xml:space="preserve" font-family="ArialMT, Arial" font-size="45.23" font-style="normal" font-weight="normal" style="stroke: none; stroke-width: 1; stroke-dasharray: none; stroke-linecap: butt; stroke-dashoffset: 0; stroke-linejoin: miter; stroke-miterlimit: 4; fill: rgb(255,255,255); fill-rule: nonzero; opacity: 1; visibility: hidden; white-space: pre;" ><tspan x="-15.08" y="14.21" >S</tspan></text>
</g>
		<g transform="matrix(0.5 0 0 0.5 9.97 43.52)" style=""  >
		<text xml:space="preserve" font-family="ArialMT, Arial" font-size="45.23" font-style="normal" font-weight="normal" style="stroke: none; stroke-width: 1; stroke-dasharray: none; stroke-linecap: butt; stroke-dashoffset: 0; stroke-linejoin: miter; stroke-miterlimit: 4; fill: rgb(255,255,255); fill-rule: nonzero; opacity: 1; visibility: hidden; white-space: pre;" ><tspan x="-17.59" y="14.21" >Q</tspan></text>
</g>
		<g transform="matrix(0.5 0 0 0.5 29 43.52)" style=""  >
		<text xml:space="preserve" font-family="ArialMT, Arial" font-size="45.23" font-style="normal" font-weight="normal" style="stroke: none; stroke-width: 1; stroke-dasharray: none; stroke-linecap: butt; stroke-dashoffset: 0; stroke-linejoin: miter; stroke-miterlimit: 4; fill: rgb(255,255,255); fill-rule: nonzero; opacity: 1; visibility: hidden; white-space: pre;" ><tspan x="-16.33" y="14.21" >U</tspan></text>
</g>
		<g transform="matrix(0.5 0 0 0.5 49.35 43.52)" style=""  >
		<text xml:space="preserve" font-family="ArialMT, Arial" font-size="45.23" font-style="normal" font-weight="normal" style="stroke: none; stroke-width: 1; stroke-dasharray: none; stroke-linecap: butt; stroke-dashoffset: 0; stroke-linejoin: miter; stroke-miterlimit: 4; fill: rgb(255,255,255); fill-rule: nonzero; opacity: 1; visibility: hidden; white-space: pre;" ><tspan x="-17.59" y="14.21" >O</tspan></text>
</g>
		<g transform="matrix(0.5 0 0 0.5 80.19 43.52)" style=""  >
		<text xml:space="preserve" font-family="ArialMT, Arial" font-size="45.23" font-style="normal" font-weight="normal" style="stroke: none; stroke-width: 1; stroke-dasharray: none; stroke-linecap: butt; stroke-dashoffset: 0; stroke-linejoin: miter; stroke-miterlimit: 4; fill: rgb(255,255,255); fill-rule: nonzero; opacity: 1; visibility: hidden; white-space: pre;" ><tspan x="-6.28" y="14.21" >I</tspan></text>
</g>
		<g transform="matrix(0.5 0 0 0.5 89.33 43.52)" style=""  >
		<text xml:space="preserve" font-family="ArialMT, Arial" font-size="45.23" font-style="normal" font-weight="normal" style="stroke: none; stroke-width: 1; stroke-dasharray: none; stroke-linecap: butt; stroke-dashoffset: 0; stroke-linejoin: miter; stroke-miterlimit: 4; fill: rgb(255,255,255); fill-rule: nonzero; opacity: 1; visibility: hidden; white-space: pre;" ><tspan x="-15.08" y="14.21" >S</tspan></text>
</g>
		<g transform="matrix(0.5 0 0 0.5 80.16 43.52)" style=""  >
		<text xml:space="preserve" font-family="ArialMT, Arial" font-size="45.23" font-style="normal" font-weight="normal" style="stroke: none; stroke-width: 1; stroke-dasharray: none; stroke-linecap: butt; stroke-dashoffset: 0; stroke-linejoin: miter; stroke-miterlimit: 4; fill: rgb(255,255,255); fill-rule: nonzero; opacity: 1; visibility: hidden; white-space: pre;" ></text>
</g>
		<g transform="matrix(0.5 0 0 0.5 126.32 43.52)" style=""  >
		<text xml:space="preserve" font-family="ArialMT, Arial" font-size="45.23" font-style="normal" font-weight="normal" style="stroke: none; stroke-width: 1; stroke-dasharray: none; stroke-linecap: butt; stroke-dashoffset: 0; stroke-linejoin: miter; stroke-miterlimit: 4; fill: rgb(255,255,255); fill-rule: nonzero; opacity: 1; visibility: hidden; white-space: pre;" ><tspan x="-17.59" y="14.21" >O</tspan></text>
</g>
		<g transform="matrix(0.5 0 0 0.5 142.34 43.52)" style=""  >
		<text xml:space="preserve" font-family="ArialMT, Arial" font-size="45.23" font-style="normal" font-weight="normal" style="stroke: none; stroke-width: 1; stroke-dasharray: none; stroke-linecap: butt; stroke-dashoffset: 0; stroke-linejoin: miter; stroke-miterlimit: 4; fill: rgb(255,255,255); fill-rule: nonzero; opacity: 1; visibility: hidden; white-space: pre;" ><tspan x="-15.08" y="14.21" >V</tspan></text>
</g>
		<g transform="matrix(0.5 0 0 0.5 163.67 43.52)" style=""  >
		<text xml:space="preserve" font-family="ArialMT, Arial" font-size="45.23" font-style="normal" font-weight="normal" style="stroke: none; stroke-width: 1; stroke-dasharray: none; stroke-linecap: butt; stroke-dashoffset: 0; stroke-linejoin: miter; stroke-miterlimit: 4; fill: rgb(255,255,255); fill-rule: nonzero; opacity: 1; visibility: hidden; white-space: pre;" ><tspan x="-15.08" y="14.21" >E</tspan></text>
</g>
		<g transform="matrix(0.5 0 0 0.5 184.26 43.52)" style=""  >
		<text xml:space="preserve" font-family="ArialMT, Arial" font-size="45.23" font-style="normal" font-weight="normal" style="stroke: none; stroke-width: 1; stroke-dasharray: none; stroke-linecap: butt; stroke-dashoffset: 0; stroke-linejoin: miter; stroke-miterlimit: 4; fill: rgb(255,255,255); fill-rule: nonzero; opacity: 1; visibility: hidden; white-space: pre;" ><tspan x="-16.33" y="14.21" >R</tspan></text>
</g>
		<g transform="matrix(0.5 0 0 0.5 -130.86 -16.68)"  >
<path style="stroke: none; stroke-width: 1; stroke-dasharray: none; stroke-linecap: butt; stroke-dashoffset: 0; stroke-linejoin: miter; stroke-miterlimit: 4; fill: rgb(255,255,255); fill-rule: nonzero; opacity: 1;" vector-effect="non-scaling-stroke"  transform=" translate(-275.93, -642.91)" d="M 350.16 565.21 L 295.84000000000003 642.53 L 350.16 720.64 L 313.62 720.64 L 276.5 669.62 C 274.32 671.64 271.48 674.5 273 677.65 L 303.76 720.62 L 288.92 720.38 L 257.49 674.99 L 276.48 649.89 L 317.92 707.62 L 326.96000000000004 707.86 L 280.78000000000003 642.32 L 326.95000000000005 578.51 C 328.14000000000004 575.45 318.16 576.4399999999999 317.12000000000006 577.97 L 224.89000000000004 707.29 L 235.09000000000003 707.62 C 239.70000000000005 701.14 244.96000000000004 690.71 250.43000000000004 685.26 C 251.89000000000004 683.81 251.54000000000005 682.96 253.33000000000004 684.63 C 254.84000000000003 686.04 258.82000000000005 691.23 258.37000000000006 693.08 L 238.23000000000008 720.62 L 201.69000000000008 720.62 L 312.4700000000001 565.19 L 350.1700000000001 565.19 L 350.1700000000001 565.21 Z" stroke-linecap="round" />
</g>
		<g transform="matrix(0.5 0 0 0.5 -154.81 -16.67)"  >
<path style="stroke: none; stroke-width: 1; stroke-dasharray: none; stroke-linecap: butt; stroke-dashoffset: 0; stroke-linejoin: miter; stroke-miterlimit: 4; fill: rgb(255,255,255); fill-rule: nonzero; opacity: 1;" vector-effect="non-scaling-stroke"  transform=" translate(-228.35, -642.93)" d="M 192.41 565.21 L 227.8 615.08 C 229.95000000000002 615.9300000000001 233.01000000000002 608.9200000000001 230.99 607.3000000000001 L 201.69 565.22 L 216.26 566.2900000000001 L 246.76999999999998 609.6500000000001 L 227.77999999999997 635.94 L 184.61999999999998 577.0400000000001 L 177.31999999999996 576.8100000000001 L 223.48999999999995 642.33 L 177.31999999999994 707.3100000000001 L 186.57999999999993 707.2900000000001 L 279.37999999999994 578.5300000000001 C 280.5199999999999 575.6100000000001 271.5799999999999 576.5100000000001 270.11999999999995 577.4000000000001 C 266.98999999999995 579.3000000000001 257.80999999999995 596.1800000000001 253.67999999999995 600.4000000000001 C 253.07999999999996 601.0100000000001 252.54999999999995 602.9800000000001 251.53999999999996 601.7700000000001 L 245.87999999999997 591.5600000000001 L 264.89 565.21 L 302.59 565.21 L 191.80999999999997 720.6400000000001 L 154.10999999999996 720.6400000000001 L 208.42999999999995 642.5300000000001 L 154.10999999999996 565.21 L 192.40999999999997 565.21 Z" stroke-linecap="round" />
</g>
		<g transform="matrix(0.5 0 0 0.5 59.95 -17.45)"  >
<path style="stroke: none; stroke-width: 1; stroke-dasharray: none; stroke-linecap: butt; stroke-dashoffset: 0; stroke-linejoin: miter; stroke-miterlimit: 4; fill: rgb(255,255,255); fill-rule: nonzero; opacity: 1;" vector-effect="non-scaling-stroke"  transform=" translate(-655.1, -641.36)" d="M 573.62 563.35 L 588.35 563.35 C 591.3000000000001 563.35 593.7 565.7 593.7 568.59 L 593.7 643.76 C 593.7 666 606.6500000000001 686.04 627.5 696.06 C 631.86 698.16 634.56 702.4399999999999 634.55 707.2299999999999 L 634.53 719.3699999999999 L 630.73 718.2299999999999 C 596.74 708.0799999999999 573.6 677.9699999999999 573.6 643.7699999999999 C 573.6 636.3499999999999 573.62 658.4699999999999 573.63 563.3499999999999 L 573.63 563.3499999999999 Z M 675.68 719.37 L 675.66 707.23 C 675.65 702.4300000000001 678.35 698.15 682.7099999999999 696.0600000000001 C 703.56 686.0400000000001 716.5099999999999 666.0000000000001 716.5099999999999 643.7700000000001 L 716.5099999999999 568.5900000000001 C 716.5099999999999 565.7000000000002 718.9099999999999 563.3500000000001 721.8599999999999 563.3500000000001 L 736.5899999999999 563.3500000000001 L 736.5899999999999 642.7000000000002 C 737.0099999999999 677.5700000000002 714.06 707.9400000000002 679.4799999999999 718.2400000000001 L 675.68 719.3700000000001 L 675.68 719.3700000000001 Z" stroke-linecap="round" />
</g>
		<g transform="matrix(0.5 0 0 0.5 155.2 -17.46)"  >
<path style="stroke: none; stroke-width: 1; stroke-dasharray: none; stroke-linecap: butt; stroke-dashoffset: 0; stroke-linejoin: miter; stroke-miterlimit: 4; fill: rgb(255,255,255); fill-rule: nonzero; opacity: 1;" vector-effect="non-scaling-stroke"  transform=" translate(-844.36, -641.36)" d="M 844.36 719.37 C 799.41 719.37 762.84 684.37 762.84 641.35 C 762.84 598.33 799.4100000000001 563.34 844.36 563.34 C 889.31 563.34 925.87 598.33 925.87 641.35 C 925.87 684.37 889.3 719.37 844.36 719.37 Z M 782.95 641.36 C 782.95 673.64 810.5 699.9 844.36 699.9 C 878.22 699.9 905.77 673.64 905.77 641.36 C 905.77 609.08 878.22 582.82 844.36 582.82 C 810.5 582.82 782.95 609.08 782.95 641.36 Z" stroke-linecap="round" />
</g>
		<g transform="matrix(0.5 0 0 0.5 -38.26 -17.45)"  >
<path style="stroke: none; stroke-width: 1; stroke-dasharray: none; stroke-linecap: butt; stroke-dashoffset: 0; stroke-linejoin: miter; stroke-miterlimit: 4; fill: rgb(255,255,255); fill-rule: nonzero; opacity: 1;" vector-effect="non-scaling-stroke"  transform=" translate(-459.98, -641.37)" d="M 459.98 699.9 C 426.12 699.9 398.57000000000005 673.64 398.57000000000005 641.36 C 398.57000000000005 609.08 426.12000000000006 582.82 459.98 582.82 C 493.84 582.82 521.39 609.08 521.39 641.36 C 521.39 643.48 521.27 645.58 521.03 647.64 C 520.6899999999999 650.58 521.76 653.5 523.97 655.4499999999999 L 536.99 666.92 C 539.9 658.91 541.49 650.31 541.49 641.36 C 541.49 598.34 504.92 563.35 459.98 563.35 C 415.04 563.35 378.46000000000004 598.34 378.46000000000004 641.36 C 378.46000000000004 684.38 415.03000000000003 719.38 459.98 719.38 C 477.17 719.38 493.13 714.26 506.29 705.53 L 496.28000000000003 696.72 C 493.11 693.9300000000001 488.64000000000004 693.27 484.76000000000005 694.9200000000001 C 477.18000000000006 698.1300000000001 468.79 699.9200000000001 459.98 699.9200000000001 L 459.98 699.9000000000001 Z" stroke-linecap="round" />
</g>
		<g transform="matrix(0.5 0 0 0.5 -5.49 7.61)"  >
<path style="stroke: none; stroke-width: 1; stroke-dasharray: none; stroke-linecap: butt; stroke-dashoffset: 0; stroke-linejoin: miter; stroke-miterlimit: 4; fill: rgb(255,255,255); fill-rule: nonzero; opacity: 1;" vector-effect="non-scaling-stroke"  transform=" translate(-524.69, -690.82)" d="M 512.76 666.53 L 543.67 693.8 C 548.9599999999999 698.4599999999999 549.4599999999999 706.54 544.8 711.8199999999999 L 541.88 715.1299999999999 L 501.39 679.4099999999999 L 512.76 666.5199999999999 L 512.76 666.5199999999999 Z" stroke-linecap="round" />
</g>
</g>
</g>
</svg>